<?xml version="1.0" encoding="UTF-8" standalone="no"?>
<svg
   xmlns:dc="http://purl.org/dc/elements/1.1/"
   xmlns:cc="http://creativecommons.org/ns#"
   xmlns:rdf="http://www.w3.org/1999/02/22-rdf-syntax-ns#"
   xmlns:svg="http://www.w3.org/2000/svg"
   xmlns="http://www.w3.org/2000/svg"
   id="svg8"
   version="1.1"
   viewBox="0 0 58.942139 9.6324863"
   height="9.6324863mm"
   width="58.942139mm">
  <defs
     id="defs2" />
  <metadata
     id="metadata5">
    <rdf:RDF>
      <cc:Work
         rdf:about="">
        <dc:format>image/svg+xml</dc:format>
        <dc:type
           rdf:resource="http://purl.org/dc/dcmitype/StillImage" />
        <dc:title></dc:title>
      </cc:Work>
    </rdf:RDF>
  </metadata>
  <g
     transform="translate(-48.411961,-118.92521)"
     id="layer1">
    <g
       id="text817"
       style="font-style:normal;font-weight:normal;font-size:10.58333302px;line-height:1.25;font-family:sans-serif;letter-spacing:0px;word-spacing:0px;fill:#ffffff;fill-opacity:1;stroke:none;stroke-width:0.26458332"
       aria-label="projectDeploy">
      <path
         id="path819"
         style="font-style:normal;font-variant:normal;font-weight:normal;font-stretch:normal;font-family:'Fette Fraktur';-inkscape-font-specification:'Fette Fraktur';stroke-width:0.26458332;fill:#ffffff"
         d="m 50.212884,119.84764 v 0.11627 q -0.366902,0.0336 -0.560689,0.0904 -0.191203,0.0543 -0.191203,0.26872 0,0.19896 0.31781,0.31781 l 0.294556,0.11627 q 0.467672,0.18087 0.607198,0.42892 0.139526,0.24805 0.155029,0.78806 l 0.149862,-0.0853 q 0.883667,-0.50126 1.627807,-1.07746 l 0.08527,0.11628 q 0.415995,0.49092 0.509012,0.91984 0.07235,0.39015 0.07235,1.20664 l -0.02067,0.83458 q 0,0.64595 -0.05168,0.90175 -0.06201,0.21446 -0.224792,0.31006 -0.162781,0.0956 -0.452169,0.18603 -0.45992,0.12919 -0.72347,0.36432 -0.260966,0.23513 -0.410828,0.67438 -0.297139,-0.29972 -0.633036,-0.49868 -0.07235,0.63304 -0.266133,1.40818 -0.186036,0.7829 -0.379822,1.30225 h -0.149862 q -0.147278,-0.50643 -0.178284,-0.63562 -0.227376,-0.91209 -0.286804,-1.43919 l -0.126607,-0.94309 q -0.0052,-0.0207 -0.01033,-0.062 -0.0052,-0.0414 -0.01034,-0.0646 -0.245463,-0.20929 -0.498677,-0.22221 -0.328145,0 -0.328145,0.45475 0,0.0129 0.0052,0.0517 0.0052,0.0388 0.0052,0.0543 h -0.126607 v -0.12661 q 0,-0.94051 0.478007,-1.34358 0.160197,-0.13695 0.465087,-0.19121 v -0.11627 q -0.03101,-0.42891 -0.03101,-0.8785 l 0.03101,-0.86816 v -0.13694 q -0.666625,-0.31781 -0.666625,-0.90951 0,-0.36174 0.188618,-0.66404 0.188619,-0.30231 0.503846,-0.47543 0.315226,-0.17311 0.682129,-0.17311 z m 0.622701,2.30735 v 2.24276 q 0.382406,0.21187 0.868164,0.67696 v -1.91461 q 0,-0.86817 -0.0956,-1.12138 -0.07751,-0.1602 -0.253215,-0.1602 -0.121439,0.0155 -0.242879,0.0956 z" />
      <path
         id="path821"
         style="font-style:normal;font-variant:normal;font-weight:normal;font-stretch:normal;font-family:'Fette Fraktur';-inkscape-font-specification:'Fette Fraktur';stroke-width:0.26458332;fill:#ffffff"
         d="m 57.28222,120.77781 0.888835,1.38752 -1.080038,1.08003 -0.759643,-1.31258 -0.328146,0.30489 v 2.03347 q 0,0.32039 0.178284,0.58394 0.178284,0.26355 0.488342,0.26355 0.129191,0 0.258383,-0.0646 0.131774,-0.0672 0.273885,-0.18345 0.14211,-0.11627 0.240295,-0.19637 0.02325,-0.0207 0.04393,-0.0388 0.02325,-0.0181 0.05168,-0.0362 l 0.07235,0.0956 q -0.400492,0.34881 -0.751892,0.6227 -0.81132,0.67179 -1.056783,0.8785 l -0.160197,0.13952 q -0.42633,-0.447 -0.839742,-0.73122 -0.413411,-0.28422 -0.937927,-0.44441 v -0.0956 h 0.105937 q 0.297139,0 0.403076,-0.1757 0.105937,-0.17828 0.105937,-0.50126 v -1.62005 q 0,-0.79324 -0.403076,-0.79324 -0.129192,0 -0.29714,0.12661 -0.02842,0.0284 -0.08268,0.0646 l -0.07493,-0.0853 0.465088,-0.42375 q 0.160197,-0.13952 0.503845,-0.45217 0.343648,-0.31522 0.374654,-0.34106 l 0.0956,-0.0853 q 0.45992,0.22221 0.692464,0.5271 0.235128,0.30489 0.25063,0.77515 0.576193,-0.48059 0.919841,-0.88883 l 0.253214,-0.29714 q 0.01809,-0.0207 0.04909,-0.0517 0.03359,-0.0336 0.05684,-0.0646 z" />
      <path
         id="path823"
         style="font-style:normal;font-variant:normal;font-weight:normal;font-stretch:normal;font-family:'Fette Fraktur';-inkscape-font-specification:'Fette Fraktur';stroke-width:0.26458332;fill:#ffffff"
         d="m 58.731744,121.67698 q 0.02067,0.005 0.06718,0.0103 0.04909,0.005 0.06976,0.0129 0.547771,0 1.142049,-0.11627 0.943095,-0.19121 1.53479,-0.7519 0.485759,0.37207 0.751893,0.72864 0.191202,0.24805 0.242879,0.65629 0.05426,0.36174 0.05426,1.11105 v 0.45475 q 0,0.7338 -0.105937,1.01802 -0.147278,0.416 -0.720886,0.57103 -0.609782,0.17312 -0.914673,0.34623 -0.304891,0.17312 -0.49351,0.61753 -0.808736,-0.82682 -2.030883,-1.21698 v -0.0646 q 0.263549,-0.0568 0.333313,-0.16278 0.06976,-0.10594 0.06976,-0.38757 z m 1.470194,2.93264 0.89917,0.62529 v -1.89653 q 0,-0.68988 -0.170532,-1.11363 -0.170532,-0.42633 -0.728638,-0.54777 z" />
      <path
         id="path825"
         style="font-style:normal;font-variant:normal;font-weight:normal;font-stretch:normal;font-family:'Fette Fraktur';-inkscape-font-specification:'Fette Fraktur';stroke-width:0.26458332;fill:#ffffff"
         d="m 64.478163,120.90442 q 0.586528,0.78032 1.364258,1.0697 v 0.0853 h -0.105937 q -0.454752,0 -0.454752,0.5917 v 4.00233 q 0,0.82683 0.413411,1.79834 l -0.0956,0.0517 q -0.310059,-0.74414 -0.434082,-1.33325 -0.258383,0.58653 -0.930176,0.98443 -0.596863,0.33849 -1.206645,0.40308 v -0.0749 q 0.470256,-0.1757 0.625285,-0.50901 0.157613,-0.33073 0.157613,-0.89917 v -4.33824 q 0,-0.65371 -0.37207,-0.6873 -0.219625,0 -0.410828,0.15762 l -0.06459,-0.062 q 0.0155,-0.0181 0.04909,-0.0439 0.03359,-0.0284 0.05684,-0.0517 l 0.359151,-0.27646 q 0.687297,-0.54002 1.049032,-0.86817 z m -0.286804,-0.36948 q -0.284221,-0.50902 -0.284221,-0.83716 0,-0.29456 0.206706,-0.48576 0.20929,-0.1912 0.501262,-0.1912 0.312642,0 0.527099,0.1912 0.214457,0.18862 0.214457,0.49868 0,0.66145 -1.165303,0.82424 z" />
      <path
         id="path827"
         style="font-style:normal;font-variant:normal;font-weight:normal;font-stretch:normal;font-family:'Fette Fraktur';-inkscape-font-specification:'Fette Fraktur';stroke-width:0.26458332;fill:#ffffff"
         d="m 68.775058,120.79848 1.131714,1.78026 -2.276347,1.41593 q 0.149862,0.45217 0.537435,0.78807 0.390157,0.33589 0.839742,0.33589 0.444417,0 0.974101,-0.37207 l 0.04134,0.0749 q -0.05943,0.0387 -0.108521,0.0775 -0.04909,0.0388 -0.08268,0.0594 l -1.206645,0.86816 q -0.173116,0.11369 -0.612365,0.50901 -0.984436,-0.42891 -1.387512,-0.94309 -0.26355,-0.33848 -0.338481,-0.94051 -0.07493,-0.54002 -0.07493,-1.11363 0,-0.5581 0.04651,-0.85266 0.04651,-0.29714 0.237711,-0.54002 0.193787,-0.24288 0.627869,-0.42633 z m -1.144633,0.70022 q -0.03101,0.26355 -0.03101,0.7829 l -0.01033,0.84749 q 0,0.35915 0.01033,0.53744 l 0.01034,0.17053 0.994771,-0.63562 z" />
      <path
         id="path829"
         style="font-style:normal;font-variant:normal;font-weight:normal;font-stretch:normal;font-family:'Fette Fraktur';-inkscape-font-specification:'Fette Fraktur';stroke-width:0.26458332;fill:#ffffff"
         d="m 73.229567,120.88375 0.741557,1.51412 q -0.302307,0.17312 -0.604614,0.31781 -0.291972,0.13953 -0.633037,0.33848 l -0.06459,-0.13694 q -0.0801,-0.19896 -0.211874,-0.49868 l -0.242879,-0.54002 q -0.08785,-0.18862 -0.222208,-0.48576 l -0.105937,0.0207 v 2.24276 q 0,0.74414 0.434082,1.12396 0.397908,0.35916 0.888835,0.35916 0.374654,0 0.847493,-0.27647 l 0.04134,0.0853 -0.116272,0.0749 q -1.043864,0.6072 -1.831929,1.20665 l -0.147278,0.10593 q -0.03101,-0.0233 -0.09819,-0.0723 -0.06718,-0.0491 -0.103353,-0.0672 -0.534851,-0.3359 -0.857829,-0.57103 -0.384989,-0.28422 -0.475423,-0.82424 -0.05168,-0.3824 -0.05168,-1.1963 0,-1.11105 0.105937,-1.4702 0.131775,-0.41858 0.697632,-0.59428 z" />
      <path
         id="path831"
         style="font-style:normal;font-variant:normal;font-weight:normal;font-stretch:normal;font-family:'Fette Fraktur';-inkscape-font-specification:'Fette Fraktur';stroke-width:0.26458332;fill:#ffffff"
         d="M 77.252577,122.15499 H 76.17254 v 2.40296 q 0,0.24287 0.113688,0.40824 0.113688,0.16278 0.341065,0.16278 0.25063,0 0.594279,-0.27647 l 0.05168,0.0853 q -0.707967,0.48576 -1.524455,1.22731 l -0.178283,0.17053 q -0.204122,-0.3514 -0.594279,-0.64853 -0.390157,-0.29973 -0.793234,-0.45217 v -0.0956 q 0.03101,0.0103 0.0956,0.0103 0.03101,0.0103 0.0956,0.0103 0.369487,0 0.369487,-0.46509 v -2.5399 h -0.666626 v -0.0853 q 0.772562,-0.43409 1.27124,-1.20665 0.436666,-0.66921 0.772563,-1.58647 h 0.103352 v 0.10594 l -0.04134,1.12138 q 0,0.0827 -0.0052,0.25063 -0.0052,0.16795 -0.0052,0.24546 v 0.49868 h 1.080037 z" />
      <path
         id="path833"
         style="font-style:normal;font-variant:normal;font-weight:normal;font-stretch:normal;font-family:'Fette Fraktur';-inkscape-font-specification:'Fette Fraktur';stroke-width:0.26458332;fill:#ffffff"
         d="m 79.358391,122.97923 q -0.436666,0.1602 -0.731222,0.1602 -0.565857,0 -0.961181,-0.39791 -0.392741,-0.39791 -0.392741,-0.97927 0,-0.82165 0.475423,-1.51412 0.297139,-0.42375 0.738973,-0.71572 0.441833,-0.29455 0.961181,-0.43925 0.519349,-0.14469 1.051616,-0.14469 1.785421,0 2.963643,0.96118 1.353923,1.11363 1.353923,2.86804 0,0.94826 -0.328146,1.67949 -0.328145,0.73122 -1.067118,1.26348 -0.834574,0.61495 -1.800924,0.61495 -0.330729,0 -0.65629,-0.0853 -0.325562,-0.0827 -0.645956,-0.22479 -0.320394,-0.1447 -0.65629,-0.33073 -0.335897,-0.18604 -0.602031,-0.33332 -0.470255,-0.25579 -0.772562,-0.25579 -0.276469,0 -0.418579,0.18345 -0.142111,0.18345 -0.258383,0.51676 l -0.116272,-0.0207 q 0.240296,-0.8139 0.772563,-1.30225 0.521932,-0.46508 1.343587,-0.46508 0.726054,0 1.524455,0.39015 0.03617,0.0129 0.07752,0.0388 0.04392,0.0258 0.06976,0.0362 0.245463,-0.24029 0.245463,-0.48834 -0.01292,-0.16019 -0.131775,-0.24546 -0.118856,-0.0853 -0.346232,-0.18862 l -0.506429,-0.23254 q -0.410828,-0.19379 -0.651123,-0.40308 -0.237712,-0.21187 -0.237712,-0.55811 0,-0.42116 0.315226,-0.86816 l 0.563274,-0.7829 q -0.0956,-0.0103 -0.276469,-0.0103 -0.552938,0 -1.167888,0.10335 -0.614949,0.10077 -1.085205,0.40824 -0.467671,0.30489 -0.467671,0.85267 0.0155,0.34364 0.286804,0.61494 0.325561,0.32557 0.813904,0.32557 0.325561,0 0.700215,-0.13695 z m 1.312581,-2.26343 q -0.165364,0.12403 -0.180867,0.31781 0,0.25838 0.465087,0.42117 l 0.540019,0.20153 q 0.434082,0.1602 0.736389,0.44184 0.302307,0.27905 0.302307,0.67954 0,0.34623 -0.173116,0.63821 -0.173116,0.29197 -0.483174,0.61236 l -0.488343,0.50643 q 1.005107,0.62529 1.736329,0.62529 0.666626,0 1.04128,-0.48576 0.377238,-0.48835 0.377238,-1.17564 0,-0.66146 -0.41858,-1.19631 -0.415995,-0.53485 -1.06195,-0.88884 -0.870748,-0.48059 -2.392619,-0.69763 z" />
      <path
         id="path835"
         style="font-style:normal;font-variant:normal;font-weight:normal;font-stretch:normal;font-family:'Fette Fraktur';-inkscape-font-specification:'Fette Fraktur';stroke-width:0.26458332;fill:#ffffff"
         d="m 88.122712,120.79848 1.131714,1.78026 -2.276347,1.41593 q 0.149862,0.45217 0.537435,0.78807 0.390157,0.33589 0.839742,0.33589 0.444418,0 0.974101,-0.37207 l 0.04134,0.0749 q -0.05943,0.0387 -0.10852,0.0775 -0.04909,0.0388 -0.08268,0.0594 l -1.206644,0.86816 q -0.173116,0.11369 -0.612366,0.50901 -0.984436,-0.42891 -1.387512,-0.94309 -0.26355,-0.33848 -0.338481,-0.94051 -0.07493,-0.54002 -0.07493,-1.11363 0,-0.5581 0.04651,-0.85266 0.04651,-0.29714 0.237712,-0.54002 0.193786,-0.24288 0.627868,-0.42633 z m -1.144633,0.70022 q -0.031,0.26355 -0.031,0.7829 l -0.01034,0.84749 q 0,0.35915 0.01034,0.53744 l 0.01033,0.17053 0.994771,-0.63562 z" />
      <path
         id="path837"
         style="font-style:normal;font-variant:normal;font-weight:normal;font-stretch:normal;font-family:'Fette Fraktur';-inkscape-font-specification:'Fette Fraktur';stroke-width:0.26458332;fill:#ffffff"
         d="m 91.20263,119.84764 v 0.11627 q -0.366902,0.0336 -0.560689,0.0904 -0.191203,0.0543 -0.191203,0.26872 0,0.19896 0.31781,0.31781 l 0.294556,0.11627 q 0.467672,0.18087 0.607198,0.42892 0.139526,0.24805 0.155029,0.78806 l 0.149862,-0.0853 q 0.883667,-0.50126 1.627808,-1.07746 l 0.08527,0.11628 q 0.415995,0.49092 0.509012,0.91984 0.07235,0.39015 0.07235,1.20664 l -0.02067,0.83458 q 0,0.64595 -0.05168,0.90175 -0.06201,0.21446 -0.224792,0.31006 -0.162781,0.0956 -0.452169,0.18603 -0.45992,0.12919 -0.72347,0.36432 -0.260966,0.23513 -0.410827,0.67438 -0.29714,-0.29972 -0.633037,-0.49868 -0.07235,0.63304 -0.266133,1.40818 -0.186035,0.7829 -0.379822,1.30225 h -0.149862 q -0.147278,-0.50643 -0.178283,-0.63562 -0.227377,-0.91209 -0.286805,-1.43919 l -0.126607,-0.94309 q -0.0052,-0.0207 -0.01033,-0.062 -0.0052,-0.0414 -0.01033,-0.0646 -0.245463,-0.20929 -0.498678,-0.22221 -0.328145,0 -0.328145,0.45475 0,0.0129 0.0052,0.0517 0.0052,0.0388 0.0052,0.0543 h -0.126607 v -0.12661 q 0,-0.94051 0.478007,-1.34358 0.160197,-0.13695 0.465088,-0.19121 v -0.11627 q -0.03101,-0.42891 -0.03101,-0.8785 l 0.03101,-0.86816 v -0.13694 q -0.666626,-0.31781 -0.666626,-0.90951 0,-0.36174 0.188619,-0.66404 0.188619,-0.30231 0.503845,-0.47543 0.315226,-0.17311 0.682129,-0.17311 z m 0.622701,2.30735 v 2.24276 q 0.382406,0.21187 0.868164,0.67696 v -1.91461 q 0,-0.86817 -0.0956,-1.12138 -0.07751,-0.1602 -0.253215,-0.1602 -0.121439,0.0155 -0.242879,0.0956 z" />
      <path
         id="path839"
         style="font-style:normal;font-variant:normal;font-weight:normal;font-stretch:normal;font-family:'Fette Fraktur';-inkscape-font-specification:'Fette Fraktur';stroke-width:0.26458332;fill:#ffffff"
         d="m 97.543329,118.92521 v 0.0853 l -0.129192,0.0207 q -0.444417,0.0594 -0.60203,0.29714 -0.157613,0.23771 -0.157613,0.71055 v 4.45451 q 0,0.28939 0.06201,0.46509 0.103352,0.22221 0.31781,0.22221 0.209289,0 0.509013,-0.21188 l 0.06201,0.10594 -0.126607,0.0853 q -0.912089,0.59944 -1.503784,1.17563 -0.602031,-0.81907 -1.353923,-1.1653 l 0.03101,-0.0956 q 0.149862,0.0543 0.255799,0.0543 0.144694,-0.008 0.188619,-0.15245 0.04392,-0.14727 0.04392,-0.43149 v -3.43907 q 0,-1.11363 -0.529683,-1.92495 l 0.0956,-0.0439 q 0.317811,0.50126 0.434082,1.0051 0.635621,-1.21698 2.402955,-1.21698 z" />
      <path
         id="path841"
         style="font-style:normal;font-variant:normal;font-weight:normal;font-stretch:normal;font-family:'Fette Fraktur';-inkscape-font-specification:'Fette Fraktur';stroke-width:0.26458332;fill:#ffffff"
         d="m 98.008415,121.67698 q 0.02067,0.005 0.06718,0.0103 0.04909,0.005 0.06976,0.0129 0.54777,0 1.142049,-0.11627 0.943093,-0.19121 1.534793,-0.7519 0.48576,0.37207 0.75189,0.72864 0.1912,0.24805 0.24288,0.65629 0.0543,0.36174 0.0543,1.11105 v 0.45475 q 0,0.7338 -0.10594,1.01802 -0.14728,0.416 -0.72088,0.57103 -0.60979,0.17312 -0.91468,0.34623 -0.304888,0.17312 -0.493507,0.61753 -0.808736,-0.82682 -2.030884,-1.21698 v -0.0646 q 0.26355,-0.0568 0.333313,-0.16278 0.06976,-0.10594 0.06976,-0.38757 z m 1.470195,2.93264 0.89917,0.62529 v -1.89653 q 0,-0.68988 -0.17053,-1.11363 -0.17053,-0.42633 -0.72864,-0.54777 z" />
      <path
         id="path843"
         style="font-style:normal;font-variant:normal;font-weight:normal;font-stretch:normal;font-family:'Fette Fraktur';-inkscape-font-specification:'Fette Fraktur';stroke-width:0.26458332;fill:#ffffff"
         d="m 104.88655,121.93278 1.58905,-1.1343 q 0.12661,0.1292 0.37982,0.38241 0.35657,0.33073 0.43408,0.5917 0.031,0.0879 0.0543,0.3824 0.0103,0.54002 0.0103,1.61747 0,1.36685 -0.0853,2.03347 -0.0698,0.54002 -0.29972,0.91984 -0.22996,0.38241 -0.67438,0.72089 -0.97151,0.75706 -1.91461,1.05678 l -0.0336,-0.10594 q 0.82682,-0.32297 1.12396,-0.97151 0.28422,-0.58395 0.28422,-1.65106 v -2.86805 q 0,-0.63562 -0.0517,-0.85783 -0.093,-0.24287 -0.27647,-0.24287 -0.10077,0.0103 -0.26355,0.10593 l -0.27647,0.18862 v 2.68976 q 0,0.39016 0.27647,0.39016 0.11885,0 0.26355,-0.0956 0.0827,-0.0388 0.11627,-0.0723 l 0.0439,0.0827 q -0.12144,0.0698 -0.50902,0.38241 l -0.37982,0.30747 q -0.26355,0.21704 -0.52968,0.54002 -0.54002,-0.69505 -1.26091,-1.05937 v -0.0646 q 0.30489,-0.0543 0.37982,-0.1447 0.0775,-0.0904 0.0775,-0.40566 v -2.6355 q -0.30489,-0.18861 -0.45992,-0.37982 -0.15503,-0.1912 -0.15503,-0.48576 0,-0.40307 0.20154,-0.71313 0.20154,-0.31006 0.54002,-0.48059 0.34106,-0.17312 0.73897,-0.17312 0.10594,0 0.29714,0.0207 v 0.12919 q -0.0749,-0.0233 -0.11627,-0.0233 -0.29973,0 -0.56586,0.0801 -0.26355,0.0775 -0.28164,0.30231 0,0.20153 0.26614,0.32814 l 0.31781,0.12661 q 0.37465,0.16536 0.53485,0.45217 0.16019,0.2868 0.20412,0.7338 z" />
    </g>
  </g>
</svg>
